<svg width="160" height="39" viewBox="0 0 160 39" fill="none" xmlns="http://www.w3.org/2000/svg">
<g opacity="0.5">
<path fill-rule="evenodd" clip-rule="evenodd" d="M62.583 27.9727L60.3881 38.2536H55.3398L63.6804 0.994189H69.6606L77.5073 38.2536H72.4042L70.2642 27.9727H62.583ZM69.6606 23.8264L67.9595 14.9248C67.4657 12.3817 66.9718 9.06654 66.5886 6.412H66.3682C65.9851 9.1209 65.4345 12.5476 64.9425 14.9248L63.1866 23.8264H69.6606ZM96.7766 0V31.3441C96.7766 33.3905 96.8863 36.3758 96.9952 38.2545H92.5514L92.2222 34.9937H92.0576C91.1796 36.8724 89.1494 38.6977 86.4615 38.6977C81.523 38.6977 78.5051 33.279 78.5051 24.933C78.5051 15.4242 82.5098 10.9462 86.7359 10.9462C88.875 10.9462 90.576 11.9422 91.5089 13.9868H91.6186V0H96.7766ZM91.6177 21.615C91.6177 21.1184 91.6177 20.5103 91.5628 19.9556C91.2885 17.524 89.9167 15.4233 88.0519 15.4233C84.8135 15.4233 83.717 19.9556 83.717 24.9321C83.717 30.4604 85.1437 34.3294 87.8873 34.3294C89.0396 34.3294 90.5751 33.7213 91.4531 30.5157C91.5628 30.0735 91.6177 29.4091 91.6177 28.8029V21.615ZM109.062 38.6968C103.741 38.6968 99.8988 34.1082 99.8988 24.8777C99.8988 15.0916 104.452 10.9453 109.336 10.9453C114.604 10.9453 118.389 15.6997 118.389 24.7662C118.389 35.436 113.176 38.6968 109.116 38.6968H109.062ZM109.226 34.6067C112.408 34.6067 113.122 28.9125 113.122 24.8224C113.122 20.7858 112.409 15.0372 109.117 15.0372C105.714 15.0372 105.057 20.7858 105.057 24.8224C105.057 29.2995 105.825 34.6067 109.172 34.6067H109.226ZM121.498 0H126.655V14.4282H126.765C128.137 11.9966 130.003 10.9453 132.362 10.9453C136.916 10.9453 139.77 16.1419 139.77 24.3792C139.77 33.9977 135.874 38.6968 131.484 38.6968C128.85 38.6968 127.369 37.2585 126.216 34.8813H125.998L125.723 38.2536H121.279C121.389 36.4302 121.498 33.3896 121.498 31.3431V0ZM126.655 28.7448C126.655 29.3548 126.71 29.9629 126.875 30.4042C127.697 33.6669 129.289 34.3294 130.331 34.3294C133.404 34.3294 134.556 30.2393 134.556 24.7109C134.556 19.5695 133.35 15.4233 130.276 15.4233C128.575 15.4233 127.203 17.4688 126.819 19.4037C126.709 19.9565 126.655 20.6761 126.655 21.2281V28.7448H126.655ZM147.381 25.871C147.436 32.7814 150.398 34.4943 153.525 34.4943C155.391 34.4943 156.982 34.053 158.135 33.4992L158.903 37.2585C157.312 38.0878 154.897 38.531 152.538 38.531C145.844 38.531 142.332 33.4449 142.332 25.1523C142.332 16.3622 146.337 10.9444 151.879 10.9444C157.421 10.9444 160 16.3069 160 23.0524C160 24.3783 159.945 25.2085 159.891 25.9263L147.381 25.871ZM155.117 22.1679C155.172 17.4135 153.525 14.8713 151.496 14.8713C148.806 14.8713 147.599 18.7965 147.436 22.1679H155.117Z" fill="white"/>
<path fill-rule="evenodd" clip-rule="evenodd" d="M26.2719 1.09326H41.6791V38.2532L26.2719 1.09326ZM15.4182 1.09326H0V38.2532L15.4182 1.09326ZM20.846 14.788L30.6626 38.2532H24.2298L21.2941 30.7798H14.1086L20.846 14.788Z" fill="white"/>
</g>
</svg>
