<svg width="126" height="57" viewBox="0 0 126 57" fill="none" xmlns="http://www.w3.org/2000/svg">
<g opacity="0.5">
<path fill-rule="evenodd" clip-rule="evenodd" d="M8.68171 30.5677C8.51904 29.3814 8.30238 28.7893 7.81368 28.1422C7.10831 27.1725 6.02293 26.687 4.6122 26.687C3.14679 26.687 2.00741 27.1725 1.19406 28.1958C0.380024 29.1132 0 30.4068 0 31.8627C0 35.0433 1.79075 37.092 4.55821 37.092C5.96893 37.092 7.163 36.4985 7.92235 35.4745C8.35637 34.881 8.51904 34.3962 8.68171 33.3708L6.34827 33.2635C6.1856 34.5585 5.58822 35.1506 4.55752 35.1506C3.25547 35.1506 2.65809 34.1809 2.65809 31.9699C2.65809 29.7053 3.25478 28.5734 4.50352 28.5734C5.15489 28.5734 5.69759 28.8973 5.91425 29.4371C6.07692 29.8147 6.1856 30.0829 6.1856 30.7307L8.68171 30.5677ZM23.8217 28.7357V26.8479H16.5501V36.929H23.8217V34.934H18.9922V32.725H22.7903V30.8373H18.9922V28.7357H23.8217ZM34.1322 32.9396H35.8143L37.3877 36.929H40.0465L38.1477 32.4548C38.6357 32.2402 38.8531 32.1309 39.0705 31.8627C39.6131 31.3765 39.8845 30.6214 39.8845 29.8683C39.8845 28.9509 39.5045 28.0349 38.8531 27.4951C38.2024 27.0102 37.4971 26.8486 36.1943 26.8486H31.7448V36.9297H34.1329V32.9396H34.1322ZM34.1322 28.627H35.5429C36.465 28.627 36.6823 28.6807 36.9537 28.8973C37.279 29.1132 37.4417 29.4908 37.4417 29.8683C37.4417 30.2995 37.225 30.7844 36.845 31.0003C36.5737 31.1612 36.3563 31.2148 35.5969 31.2148H34.1322V28.627ZM54.6978 26.8479H47.2635V28.843H49.7596V36.929H52.2017V28.843H54.6978V26.8479ZM62.1855 36.929H64.5736V26.8479H62.1855V36.929ZM80.3103 28.843V26.8479H73.0933V36.929H75.5894V32.9946H79.3329V31.1076H75.5894V28.843H80.3103ZM88.0153 36.929H90.4027V26.8479H88.0153V36.929ZM106.194 28.7357V26.8479H98.9232V36.929H106.194V34.934H101.365V32.725H105.163V30.8373H101.365V28.7357H106.194ZM114.117 26.8479V36.929H117.59C119.163 36.929 120.302 36.4441 121.172 35.4745C121.986 34.5034 122.42 33.2635 122.42 31.8627C122.42 30.4068 121.986 29.1669 121.118 28.2509C120.194 27.1725 119.164 26.8479 117.21 26.8479H114.117ZM116.45 28.6807H117.48C118.294 28.6807 118.837 28.9509 119.271 29.4908C119.738 30.1739 119.984 30.982 119.977 31.8077C119.977 32.725 119.705 33.5874 119.271 34.2346C118.837 34.773 118.24 35.0433 117.426 35.0433H116.45V28.6807Z" fill="white"/>
<path opacity="0.8" d="M0.162109 42.3206H122.038" stroke="white" stroke-width="1.69331" stroke-miterlimit="2.613"/>
<path opacity="0.8" fill-rule="evenodd" clip-rule="evenodd" d="M43.3566 52.7245H45.0927C46.3407 52.7245 47.1008 52.51 47.6434 52.0788C48.2401 51.5403 48.6202 50.7302 48.6202 49.9765C48.6202 49.1664 48.1861 48.359 47.5888 47.9808C47.1547 47.6582 46.6121 47.5496 45.5267 47.5496H43.1392L41.6738 56.2291H42.7592L43.3566 52.7245ZM43.4646 51.8622L44.0613 48.4126H45.9067C46.2867 48.4126 46.7207 48.5199 46.9374 48.6815C47.2627 48.8975 47.4801 49.4366 47.4801 49.9765C47.4801 50.6766 47.1541 51.3237 46.666 51.594C46.2867 51.8085 45.9067 51.8628 44.6586 51.8628H43.4646V51.8622ZM53.775 56.2284V55.9595C53.775 55.7436 53.829 55.3124 53.8837 54.7732C54.3724 51.8078 54.3724 51.6462 54.3724 51.3223C54.3724 50.2976 53.287 49.5975 51.8216 49.5975C50.5196 49.5975 49.5429 50.136 49.0542 51.052L50.0309 51.4832C50.4649 50.6745 51.0076 50.3513 51.8763 50.3513C52.853 50.3513 53.3417 50.7838 53.3417 51.5926C53.3417 51.8071 53.3417 51.9151 53.287 52.2383H52.3103C51.3876 52.2383 50.6283 52.292 50.1942 52.4543C49.0549 52.7782 48.4035 53.5326 48.4035 54.5029C48.4035 55.5813 49.2715 56.39 50.4656 56.39C51.4423 56.39 52.2023 55.9588 52.9077 54.9341C52.799 55.3117 52.745 55.5276 52.745 55.9052C52.745 55.9588 52.745 56.0661 52.7997 56.2277H53.775V56.2284ZM53.1784 52.9941C53.0697 53.5876 52.961 53.9115 52.6897 54.3427C52.147 55.0978 51.3869 55.5826 50.6276 55.5826C49.9222 55.5826 49.4882 55.2051 49.4882 54.5043C49.4882 53.9658 49.8135 53.5346 50.4109 53.2644C50.8449 53.0484 51.4416 52.9405 52.3103 52.9405C52.6357 52.9405 52.7983 52.9941 53.1784 52.9941ZM56.3798 56.2284L56.5972 54.7739C56.8138 53.479 56.9765 52.8332 57.2479 52.239C57.7906 51.1621 58.4419 50.6215 59.31 50.6215H59.5813L59.7987 49.5982H59.5273C58.4959 49.5982 57.8992 50.1367 57.1392 51.4839L57.4652 49.8128H56.4338L55.3484 56.2277H56.3798V56.2284ZM61.9141 50.5686H63.3795L63.4874 49.8135H62.0234L62.2941 48.1424L61.3174 48.2496L61.1007 49.8128H60.07L59.962 50.5679H60.9387L60.396 53.5876C60.2334 54.6109 60.2334 54.6109 60.2334 54.9885C60.2334 55.9059 60.8301 56.337 61.8608 56.337H62.2948L62.6208 56.2834H62.8382L62.9461 55.4747L62.7288 55.5283C62.4581 55.5283 62.2408 55.582 62.0241 55.582C61.5354 55.582 61.2101 55.3117 61.2101 54.8805C61.2101 54.7196 61.2641 54.3957 61.3181 54.0718L61.9141 50.5686ZM68.8064 56.2284L69.4564 52.5093C69.5118 52.0781 69.5657 51.7005 69.5657 51.431C69.5657 50.4077 68.7517 49.5989 67.6663 49.5989C66.6889 49.5989 65.9843 50.1374 65.3869 51.215L65.6042 49.8142H64.7362L63.6508 56.2291H64.6268L65.0068 53.9122C65.2242 52.7245 65.3869 52.0788 65.7129 51.5403C66.1469 50.7852 66.7429 50.4083 67.395 50.4083C68.101 50.4083 68.589 50.8932 68.589 51.5946C68.589 51.7556 68.589 52.1331 68.4811 52.5107L67.8837 56.2298H68.8064V56.2284ZM75.2633 54.3427C74.612 55.2587 74.124 55.5826 73.3099 55.5826C72.2799 55.5826 71.5738 54.7739 71.5738 53.5883C71.5738 53.426 71.6278 53.318 71.6278 53.1035H76.4027C76.4027 52.7796 76.4567 52.6173 76.4567 52.3484C76.4567 50.6222 75.4807 49.5989 73.8526 49.5989C71.9532 49.5989 70.5418 51.27 70.5418 53.4796C70.5418 55.2594 71.6271 56.3914 73.3092 56.3914C74.5033 56.3914 75.3713 55.9065 76.0767 54.7203L75.2633 54.3427ZM71.7358 52.3484C72.0079 51.1621 72.8212 50.3526 73.8533 50.3526C74.7753 50.3526 75.4253 51.0541 75.4253 52.0251V52.3491H71.7358V52.3484ZM78.0848 56.2284L78.3568 54.7739C78.5188 53.479 78.7368 52.8332 79.0068 52.239C79.4962 51.1621 80.1462 50.6215 81.0156 50.6215H81.3402L81.5036 49.5982H81.2862C80.2562 49.5982 79.6042 50.1367 78.8448 51.4839L79.1709 49.8128H78.1935L77.1095 56.2277H78.0848V56.2284Z" fill="white"/>
<path fill-rule="evenodd" clip-rule="evenodd" d="M2.06126 11.6456L0.270508 19.7316H6.02278L8.03019 11.6449L8.68087 9.11071L8.73555 11.6449L8.89822 19.7316H12.9677L17.0372 11.6449L18.3393 9.11071L17.7426 11.6449L15.9525 19.7316H21.7048L23.4956 11.6449L24.4723 7.17069L26.1003 0H18.2313L14.7585 7.17069L12.8591 10.9978L12.7504 7.17069L12.5337 0H4.66535L3.03727 7.17069L2.06126 11.6456ZM31.2006 7.17138L31.6346 5.06838H26.3163L25.8823 7.17138L24.8516 11.6456L23.0062 19.6787L28.3784 19.7323L30.1692 11.6456L31.2006 7.17138ZM45.7972 7.17138C44.9832 5.93076 43.4638 4.85313 40.6423 4.69152C37.6035 4.52991 35.2161 5.5539 33.534 7.17138C32.1773 8.41131 31.2552 10.0281 30.8212 11.6456C29.7905 15.6886 31.5806 20.0555 36.7362 20.1635C44.1158 20.2715 45.7979 14.395 45.7979 14.3407H40.263C40.101 14.5566 39.2863 16.4973 37.6582 16.4437C35.6508 16.3894 35.4874 13.9095 36.2475 11.6449C36.8988 9.86649 38.2009 8.24901 39.6656 8.19468C41.4024 8.14035 41.239 10.297 41.131 10.5122H46.6659C46.6652 10.4057 46.7739 8.6802 45.7972 7.17138ZM57.2471 7.17138L57.8437 4.85313C56.921 4.85313 56.1617 4.96041 55.3476 5.23068C54.3716 5.5539 53.5576 6.09306 52.9062 6.9018L53.2862 5.06907H48.5114L48.0227 7.17207L46.992 11.6463L45.2005 19.7316H50.2474L51.4408 14.5023C51.7128 13.2624 52.1468 12.3464 52.5802 11.6449C53.7196 9.86649 55.185 9.59622 55.999 9.54258C55.6737 10.2434 55.4023 10.9441 55.2396 11.6449C54.1543 15.6879 55.999 20.0012 61.5346 20.1628C65.7668 20.3244 68.9143 18.0605 70.2717 15.3647C70.1083 17.0895 70.8677 20.1628 77.76 20.2164C85.465 20.3244 86.115 15.4727 86.061 14.3943C86.007 13.1001 85.573 12.2377 84.9216 11.6442C83.6196 10.4579 81.4495 10.2427 79.4961 9.81148C77.1087 9.32596 77.5967 7.43958 79.7121 7.43958C81.9915 7.43958 81.4495 9.32665 81.4495 9.32665H86.549C86.549 9.21868 86.8211 8.19468 86.387 7.17069C85.953 5.87643 84.4876 4.47489 80.2561 4.42125C77.2166 4.42125 74.3952 5.12202 73.1471 7.17069C72.8751 7.65552 72.6577 8.19468 72.6037 8.84181C72.3878 10.0281 72.7671 10.9441 73.3638 11.6449C74.7752 13.2624 77.5967 13.7479 78.5187 13.9088C81.5035 14.448 80.6362 16.8742 78.4647 16.8742C75.2632 16.9278 76.0773 14.6639 76.0773 14.6639H66.1468L70.5963 13.1544C71.0304 12.9928 71.3024 12.8312 71.3564 12.4536C71.4104 12.1841 71.4644 11.9145 71.5197 11.6449C71.6817 9.97377 71.3564 8.41062 70.4883 7.17069C69.457 5.66118 67.6669 4.6365 65.1154 4.47489C62.0233 4.31328 59.5272 5.44524 57.7904 7.17069C57.5191 7.44027 57.2477 7.70985 57.0311 8.03307L57.2471 7.17138ZM102.07 7.17138C101.038 5.66187 99.3023 4.63719 96.7508 4.47558C93.6573 4.36761 91.1619 5.44593 89.4258 7.17138C88.1224 8.41131 87.2544 10.0281 86.8744 11.6456C85.8443 15.6886 87.6884 19.9475 93.2233 20.1635C99.1923 20.4331 102.774 15.9045 103.154 11.6456C103.263 10.0281 102.937 8.41131 102.07 7.17138ZM121.387 7.17138L121.875 5.06838H119.325L120.085 1.5102H115.201L114.441 5.06838H111.293L111.347 4.69083C111.62 3.61251 111.727 2.96538 113.41 2.96538L113.952 0.215939C113.952 0.215939 109.828 -0.268893 108.146 0.971038C107.061 1.83342 106.627 2.8581 106.139 5.06838H103.479L103.045 7.17138L102.719 8.46564H105.433L104.726 11.6456L102.99 19.6787H108.254L110.045 11.6456L110.75 8.46564H113.681L112.975 11.6456L112.053 15.8509C111.619 17.7916 112.269 18.7083 112.921 19.1395C114.385 20.1098 118.618 19.625 118.618 19.625L119.432 16.2828C119.432 16.2828 117.37 16.498 117.152 15.9589C117.044 15.5277 117.152 15.2038 117.208 14.8812L117.914 11.6463L118.618 8.46633H121.115L121.387 7.17138ZM123.124 7.17138C123.019 6.97153 122.963 6.74976 122.961 6.52425C122.961 5.76915 123.612 5.17704 124.372 5.17704C125.132 5.17704 125.728 5.76984 125.728 6.52425C125.728 6.74019 125.674 6.95544 125.62 7.17138C125.348 7.60188 124.914 7.92579 124.372 7.92579C123.828 7.9251 123.34 7.60188 123.124 7.17138ZM125.836 7.17138C125.946 6.95544 125.999 6.74019 125.999 6.52425C125.999 5.66187 125.239 4.9611 124.371 4.9611C123.448 4.9611 122.743 5.66255 122.743 6.52425C122.743 6.74019 122.797 6.95544 122.851 7.17138C123.123 7.71054 123.665 8.14173 124.371 8.14173C125.022 8.14104 125.619 7.70985 125.836 7.17138ZM123.882 7.17138L124.045 6.57789H124.317L124.533 7.17138L124.641 7.3323H124.913L124.859 7.17138L124.587 6.57789C124.859 6.57789 125.075 6.36195 125.131 6.09237C125.131 5.82279 124.967 5.60685 124.587 5.60685L123.991 5.66118L123.611 7.17069L123.557 7.33162H123.828L123.882 7.17138ZM124.859 6.09237C124.859 6.36195 124.533 6.36195 124.317 6.36195H124.1L124.154 5.82279H124.534C124.751 5.82279 124.859 5.87712 124.859 6.09237ZM32.8286 0.000687327H27.4564L26.7503 3.18132H32.0686L32.8286 0.000687327ZM60.7739 11.6456C61.4792 9.54327 62.9986 7.65621 64.6807 7.92579C66.1461 8.14173 66.5261 9.81285 66.2541 11.6456C65.8201 14.1254 64.03 16.8749 61.8586 16.4444C60.1779 16.0661 60.0145 13.7479 60.7739 11.6456ZM92.4093 11.6456C93.1153 9.54327 94.6347 7.65621 96.3168 7.92579C97.7822 8.14173 98.2162 9.81285 97.8902 11.6456C97.4562 14.1254 95.7201 16.8749 93.5494 16.4444C91.8133 16.0661 91.6499 13.7479 92.4093 11.6456Z" fill="white"/>
</g>
</svg>
