<svg width="131" height="25" viewBox="0 0 131 25" fill="none" xmlns="http://www.w3.org/2000/svg">
<g clip-path="url(#clip0_2419_9704)">
<path d="M10.7816 11.9714C10.7816 9.77268 9.12786 8.22736 7.09645 8.22736C5.06504 8.22736 3.41127 9.79873 3.41127 11.9714C3.41127 14.1181 5.06504 15.7156 7.09645 15.7156C9.12991 15.7135 10.7816 14.1702 10.7816 11.9714ZM10.8107 18.5157V16.8139C9.80843 17.9925 8.31653 18.7241 6.52998 18.7241C2.81783 18.7241 0 15.8438 0 11.9714C0 8.12311 2.92573 5.19275 6.61297 5.19275C8.3477 5.19275 9.81056 5.92634 10.8127 7.07684V5.42725H14.1452V18.5157H10.8107Z" fill="black"/>
<path d="M30.3319 15.6092C29.1657 15.6092 28.842 15.1902 28.842 14.0919V8.28126H30.9834V5.4271H28.842V2.23418H25.4266V5.4271H21.0276V4.63137C21.0276 3.53099 21.4613 3.11207 22.6545 3.11207H23.4035V0.572571H21.7601C18.9423 0.572571 17.6143 1.4625 17.6143 4.1844V5.42509H15.7178V8.27928H17.6143V18.5135H21.0297V8.27928H25.4287V14.6932C25.4287 17.3629 26.4849 18.5155 29.2487 18.5155H31.0104V15.6092H30.3319Z" fill="black"/>
<path d="M42.5805 10.7928C42.3377 9.0911 40.8997 8.07088 39.2211 8.07088C37.5403 8.07088 36.1584 9.06506 35.8077 10.7928H42.5805ZM35.7787 12.8353C36.0236 14.7715 37.4594 15.8719 39.275 15.8719C40.7109 15.8719 41.8231 15.2164 42.4725 14.1701H45.9689C45.1555 16.9442 42.5805 18.724 39.1941 18.724C35.1022 18.724 32.2305 15.95 32.2305 11.9974C32.2305 8.04484 35.2662 5.19067 39.2771 5.19067C43.315 5.19067 46.2408 8.07096 46.2408 11.9974C46.2408 12.2861 46.2138 12.5727 46.1598 12.8353H35.7787Z" fill="black"/>
<path d="M67.9564 11.9714C67.9564 9.85081 66.3027 8.22736 64.2712 8.22736C62.2399 8.22736 60.586 9.79873 60.586 11.9714C60.586 14.1181 62.2399 15.7156 64.2712 15.7156C66.3027 15.7135 67.9564 14.0921 67.9564 11.9714ZM57.2246 5.42725H60.557V7.12894C61.5592 5.92433 63.0491 5.19275 64.8377 5.19275C68.4959 5.19275 71.3677 8.09904 71.3677 11.9454C71.3677 15.7937 68.4419 18.7261 64.7568 18.7261C63.0491 18.7261 61.6402 18.0707 60.6649 16.9723V23.9014H57.2246V5.42725Z" fill="black"/>
<path d="M83.3793 11.9714C83.3793 9.77268 81.7276 8.22736 79.6939 8.22736C77.6626 8.22736 76.0089 9.79873 76.0089 11.9714C76.0089 14.1181 77.6626 15.7156 79.6939 15.7156C81.7276 15.7135 83.3793 14.1702 83.3793 11.9714ZM83.4085 18.5157V16.8139C82.4062 17.9925 80.9139 18.7241 79.1273 18.7241C75.4154 18.7241 72.5977 15.8438 72.5977 11.9714C72.5977 8.12311 75.5234 5.19275 79.2086 5.19275C80.9431 5.19275 82.4062 5.92634 83.4085 7.07684V5.42725H86.7411V18.5157H83.4085Z" fill="black"/>
<path d="M51.2171 6.71004C51.2171 6.71004 52.0659 5.19275 54.1429 5.19275C55.031 5.19275 55.6058 5.48738 55.6058 5.48738V8.82664C55.6058 8.82664 54.3525 8.07899 53.2008 8.22933C52.0492 8.37966 51.3209 9.40186 51.3251 10.7688V18.5176H47.8848V5.42926H51.2171V6.71004Z" fill="black"/>
<path d="M102.305 5.42725L93.8908 23.8592H90.3428L93.6462 16.7338L88.0605 5.42725H92.0821L95.35 12.9816L98.7031 5.42725H102.305Z" fill="black"/>
<path d="M129.164 5.13053L120.822 0.480444C118.374 -0.884512 115.313 0.821187 115.313 3.55311V4.03014C115.313 4.46108 115.552 4.85994 115.937 5.0744L117.513 5.95231C117.975 6.21087 118.552 5.88817 118.552 5.37306V4.18648C118.552 3.59319 119.216 3.22239 119.747 3.51904L126.972 7.54777C127.504 7.84441 127.504 8.58602 126.972 8.88069L119.747 12.9094C119.216 13.2061 118.552 12.8352 118.552 12.2419V11.6105C118.552 8.87864 115.492 7.17096 113.041 8.53788L104.7 13.188C102.251 14.553 102.251 17.9684 104.7 19.3333L113.041 23.9834C115.489 25.3483 118.552 23.6427 118.552 20.9108V20.4337C118.552 20.0028 118.314 19.6059 117.928 19.3894L116.353 18.5095C115.89 18.251 115.313 18.5737 115.313 19.0888V20.2754C115.313 20.8687 114.65 21.2394 114.118 20.9428L106.893 16.9141C106.362 16.6174 106.362 15.8759 106.893 15.5792L114.118 11.5504C114.65 11.2538 115.313 11.6246 115.313 12.2179V12.8493C115.313 15.5812 118.374 17.2889 120.822 15.9219L129.164 11.2718C131.612 9.91086 131.612 6.49548 129.164 5.13053Z" fill="black"/>
</g>
<defs>
<clipPath id="clip0_2419_9704">
<rect width="131" height="24.4639" fill="white"/>
</clipPath>
</defs>
</svg>
