<svg width="120" height="43" viewBox="0 0 120 43" fill="none" xmlns="http://www.w3.org/2000/svg">
<g clip-path="url(#clip0_2419_9741)">
<path d="M23.0639 29.7803C21.7493 29.5869 20.5231 29.0076 19.5429 28.1171C18.5628 27.2265 17.8736 26.0653 17.5639 24.7829C9.92111 25.0635 7.74833 12.7065 13.4578 15.3653C13.5895 14.3776 14.0069 13.4489 14.6594 12.6916C10.1906 11.7158 5.54 19.5711 8.97333 13.507C1.74111 20.0308 5.12556 26.0095 1.57222 31.8024C3.83333 34.2589 7.12278 36.1172 10.9056 37.2749C10.8867 36.6977 11.2389 34.8399 11.9383 34.0984C13.4639 38.1443 20.69 37.7369 25.6311 40.7772C25.0556 35.8058 24.3472 31.8002 23.0644 29.7819L23.0639 29.7803ZM24.4378 29.7141C25.8378 32.5808 26.66 38.0126 26.7578 42.8126C21.5711 39.0953 13.9711 39.4497 12.17 36.6239C12.2189 37.6305 12.1328 38.2551 12.1794 39.0219C3.39722 35.8747 2.11111 34.287 0 31.8376C4.96667 21.9019 -0.632778 22.5518 8.18333 11.8371C2.27778 7.181 3.19889 6.24768 6.86056 1.51051L9.24944 3.55522L13.5267 0L17.0267 2.90085L11.8889 7.56249L20.3183 0.700128L22.7972 4.63628L23.7778 4.21731C25.8017 8.34586 28.1789 10.9854 23.5783 14.1713C26.0967 15.7744 28.4383 18.4801 28.8067 21.5584C28.2878 20.0672 24.0667 20.5634 21.4039 20.1902C26.8728 23.4846 27.8444 29.6689 24.4383 29.7141H24.4378ZM16.355 11.8603C16.4894 12.3553 16.7175 12.8204 17.0272 13.2308C17.9306 13.7517 18.8072 14.5042 18.9306 15.2154C19.1394 13.6553 17.2922 12.3526 16.355 11.8592V11.8603ZM27.3889 19.7998C26.4789 17.8704 24.6983 15.4072 22.3139 14.9739L22.6361 15.9381L20.7111 17.555C23.4944 17.4641 25.4767 18.8296 27.3889 19.7998ZM17.1056 15.6829C18.0428 16.2204 19.4289 16.1537 17.9339 14.5704L17.1056 15.6829ZM24.985 19.0628C23.6821 18.4551 22.2683 18.1164 20.8294 18.0672C20.0961 18.3963 22.3967 20.4184 24.985 19.0628ZM5.10778 5.86178L6.43278 5.42076L7.21056 6.85023L7.93278 5.29506L9.73556 5.52936L7.05556 3.15278L5.10778 5.86178ZM9.98222 4.33308L12.26 3.70572L12.2472 5.28514L13.6361 3.76195L14.4639 3.999L15.4 3.10923L13.4817 1.58769L9.98222 4.33308ZM13.6578 8.0851L17.3728 6.13908L18.1667 7.86294L19.8083 5.72286L21.7778 8.3646L23.2061 7.62203L25 9.26154L23.4261 5.92353L22.4633 6.46654L20.1633 2.86997L13.6578 8.0851Z" fill="#333333"/>
<path d="M34.8108 22.128V15.3709H33.5508V13.7248H34.8108V13.0103C34.7862 12.6083 34.8462 12.2056 34.9869 11.8279C35.1277 11.4501 35.3462 11.1056 35.6286 10.8162C36.2571 10.2646 37.0805 9.98306 37.918 10.0334C38.3061 10.0429 38.6919 10.0946 39.0686 10.1878L39.0452 11.9282C38.8193 11.8774 38.588 11.8539 38.3563 11.8581C37.5047 11.8581 37.0786 12.254 37.0786 13.0462V13.722H38.7613V15.3682H37.0808V22.1269L34.8108 22.128Z" fill="#333333"/>
<path d="M44.6964 15.8292C44.4268 15.7905 44.1549 15.7697 43.8825 15.7669C43.0269 15.7669 42.4658 16.0541 42.1997 16.6291V22.1276H39.9375V13.7249H42.0742L42.1369 14.7266C42.3109 14.3775 42.5802 14.0838 42.9142 13.8791C43.2481 13.6745 43.6333 13.567 44.0258 13.5689C44.2647 13.5673 44.5019 13.6009 44.7303 13.6698L44.6964 15.8292Z" fill="#333333"/>
<path d="M49.275 15.3809C49.4788 15.3683 49.6831 15.3984 49.8745 15.4692C50.0659 15.5399 50.2402 15.6497 50.3861 15.7916C50.6644 16.1124 50.81 16.5259 50.7933 16.9493V17.129H47.6472C47.6886 16.653 47.8756 16.2009 48.1833 15.8335C48.3215 15.6843 48.4907 15.5666 48.6792 15.4886C48.8676 15.4106 49.0709 15.374 49.275 15.3814V15.3809ZM51.4583 21.8876C52.0091 21.644 52.4847 21.2593 52.8361 20.773L51.725 19.5381C51.4852 19.8455 51.1744 20.0911 50.8189 20.2542C50.4634 20.4173 50.0735 20.4931 49.6822 20.4753C49.1696 20.4938 48.6693 20.3162 48.285 19.9791C47.9093 19.6329 47.6741 19.1623 47.6238 18.656H53.0205V17.7398C53.0925 16.6235 52.7352 15.5216 52.0205 14.6565C51.671 14.2896 51.2454 14.0024 50.7731 13.8147C50.3008 13.627 49.7931 13.5433 49.285 13.5694C48.5605 13.5567 47.8467 13.7435 47.2227 14.1091C46.6142 14.474 46.1274 15.0088 45.8233 15.6466C45.4854 16.3535 45.3168 17.1284 45.3305 17.9107V18.1285C45.3046 18.6849 45.3951 19.2407 45.5965 19.7606C45.7979 20.2806 46.1057 20.7535 46.5005 21.1495C46.9038 21.5303 47.3801 21.8268 47.901 22.0215C48.422 22.2162 48.9771 22.3051 49.5333 22.2829C50.1964 22.2929 50.8536 22.158 51.4583 21.8876Z" fill="#333333"/>
<path d="M58.8862 19.8054C58.8858 19.6699 58.847 19.5373 58.7743 19.4227C58.7017 19.3081 58.598 19.216 58.4751 19.157C58.0592 18.9516 57.6146 18.8088 57.1562 18.7337C55.1423 18.3141 54.1351 17.4652 54.1351 16.1862C54.1324 15.8239 54.2156 15.4661 54.378 15.1416C54.5404 14.8171 54.7775 14.5351 55.0701 14.3184C55.7721 13.7936 56.6366 13.5285 57.5146 13.5687C58.4355 13.5221 59.345 13.7879 60.0935 14.3223C60.4003 14.5482 60.6482 14.8438 60.8164 15.1843C60.9846 15.5248 61.0681 15.9003 61.0601 16.2794H58.7985C58.8032 16.1325 58.7779 15.9863 58.724 15.8495C58.6702 15.7126 58.5889 15.5881 58.4851 15.4833C58.3514 15.3688 58.196 15.2819 58.028 15.2279C57.86 15.1738 57.6828 15.1536 57.5068 15.1685C57.1908 15.1487 56.8779 15.2394 56.6223 15.4249C56.5227 15.5021 56.4425 15.6013 56.3881 15.7146C56.3338 15.8279 56.3067 15.9521 56.309 16.0776C56.3096 16.3279 56.4468 16.5578 56.6673 16.6796C57.0415 16.8798 57.4479 17.0137 57.8685 17.0754C58.3518 17.1653 58.8285 17.291 59.2929 17.4519C60.4873 17.8863 61.0851 18.6399 61.0851 19.7122C61.0901 20.0801 61.0016 20.4433 60.828 20.7684C60.6543 21.0934 60.4009 21.3699 60.0912 21.5722C59.3333 22.0738 58.4341 22.3227 57.524 22.2828C56.8743 22.2948 56.2298 22.1663 55.6351 21.9063C55.1183 21.6825 54.671 21.3259 54.3396 20.8732C54.0353 20.4622 53.8709 19.9658 53.8701 19.4558H56.0146C56.0146 19.8125 56.1779 20.1494 56.459 20.3721C56.7829 20.5989 57.1742 20.7111 57.5701 20.6907C57.9154 20.7141 58.2592 20.6284 58.5523 20.4459C58.7651 20.3015 58.8901 20.0606 58.8862 19.8054Z" fill="#333333"/>
<path d="M64.7485 14.641C65.0169 14.3016 65.3606 14.0283 65.7529 13.8424C66.1453 13.6565 66.5755 13.563 67.0102 13.5693C68.8469 13.5693 69.778 14.6277 69.8041 16.7458V22.1279H67.5424V16.8081C67.5736 16.426 67.4621 16.046 67.2291 15.7402C67.0899 15.613 66.9252 15.5165 66.7458 15.4569C66.5664 15.3974 66.3763 15.3761 66.188 15.3946C65.9003 15.3748 65.6127 15.4356 65.3581 15.5701C65.1035 15.7046 64.8921 15.9074 64.748 16.1553V22.1285H62.4863V10.1987H64.748L64.7485 14.641Z" fill="#333333"/>
<path d="M72.1291 22.1279V15.3709H70.8691V13.7247H72.1291V13.0103C72.1045 12.6083 72.1645 12.2056 72.3053 11.8278C72.4461 11.4501 72.6646 11.1055 72.9469 10.8162C73.5758 10.2654 74.3991 9.98461 75.2364 10.0356C75.6244 10.045 76.0103 10.0968 76.3869 10.1899L76.3636 11.9303C76.1376 11.8796 75.9063 11.8561 75.6747 11.8603C74.823 11.8603 74.3969 12.2561 74.3969 13.0483V13.7242H76.0797V15.3703H74.3964V22.1274L72.1291 22.1279Z" fill="#333333"/>
<path d="M80.2923 20.5666C79.9958 20.5836 79.7042 20.4867 79.4778 20.296C79.3809 20.2088 79.3042 20.102 79.2529 19.9826C79.2016 19.8633 79.1769 19.7343 79.1806 19.6046L79.1884 19.4723C79.2611 18.6956 79.8639 18.3075 80.9962 18.3075H81.8417V19.7518C81.6984 20.0076 81.48 20.2149 81.2156 20.3461C80.9309 20.4942 80.6137 20.57 80.2923 20.5666ZM84.45 22.1268V21.9945C84.1983 21.4253 84.0831 20.806 84.1134 20.1851V16.5428C84.1366 16.132 84.066 15.7213 83.9068 15.3413C83.7476 14.9614 83.5039 14.6221 83.1939 14.3487C82.4886 13.7977 81.6053 13.5202 80.7089 13.5681C80.07 13.5582 79.4367 13.6784 78.8461 13.9209C78.3365 14.1234 77.8926 14.4607 77.5628 14.8961C77.2685 15.2859 77.1093 15.7598 77.1089 16.2468H79.3706C79.364 16.1063 79.3899 15.9661 79.4462 15.8371C79.5025 15.708 79.5878 15.5934 79.6956 15.502C79.9519 15.3079 80.2698 15.2115 80.5917 15.2302C80.7664 15.215 80.9424 15.2385 81.1068 15.2989C81.2713 15.3593 81.4202 15.4553 81.5428 15.5797C81.7539 15.8432 81.8617 16.1751 81.8445 16.5114V16.9927H80.8034C79.7899 16.9326 78.7824 17.1848 77.9189 17.7149C77.5925 17.9461 77.3298 18.255 77.1551 18.6132C76.9803 18.9715 76.8991 19.3676 76.9189 19.7651C76.9116 20.1068 76.9812 20.4459 77.1226 20.7576C77.2641 21.0692 77.4739 21.3457 77.7367 21.5667C78.3092 22.0538 79.0453 22.3096 79.7989 22.2833C80.2005 22.2967 80.6002 22.2221 80.9694 22.0649C81.3387 21.9077 81.6686 21.6717 81.9356 21.3737C81.9706 21.6356 82.0473 21.8903 82.1628 22.1279L84.45 22.1268Z" fill="#333333"/>
<path d="M90.6075 15.8292C90.3381 15.7906 90.0659 15.7696 89.7936 15.7669C88.9381 15.7669 88.377 16.0541 88.1109 16.6291V22.1276H85.8486V13.7249H87.9853L88.0481 14.7266C88.2221 14.3775 88.4914 14.0838 88.8253 13.8791C89.1593 13.6745 89.5445 13.567 89.937 13.5689C90.1759 13.5673 90.4131 13.6009 90.6414 13.6698L90.6075 15.8292Z" fill="#333333"/>
<path d="M93.8173 13.7249L93.89 14.6642C94.1816 14.3061 94.5536 14.0206 94.9762 13.8305C95.3988 13.6404 95.8603 13.551 96.3239 13.5694C96.7856 13.5284 97.2487 13.6294 97.6505 13.8586C98.0524 14.0878 98.3734 14.4341 98.57 14.8506C98.8473 14.4384 99.2268 14.104 99.672 13.8796C100.117 13.6552 100.613 13.5483 101.112 13.5694C101.492 13.5399 101.874 13.5962 102.23 13.7341C102.585 13.8719 102.904 14.0878 103.163 14.3654C103.661 15.0612 103.899 15.9079 103.834 16.7591V22.1258H101.564V16.7685C101.596 16.3984 101.496 16.029 101.283 15.7238C101.151 15.6004 100.994 15.5069 100.822 15.4498C100.651 15.3927 100.468 15.3733 100.288 15.393C99.9798 15.3785 99.6749 15.4649 99.4205 15.6388C99.1661 15.8128 98.9762 16.0648 98.88 16.3561L98.89 22.128H96.6284V16.7768C96.6617 16.4019 96.5589 16.027 96.3389 15.7205C96.2074 15.5997 96.0514 15.5081 95.8813 15.4518C95.7113 15.3955 95.5311 15.3759 95.3528 15.3941C95.0681 15.3773 94.7846 15.4433 94.5371 15.584C94.2896 15.7247 94.0888 15.9341 93.9595 16.1863V22.128H91.6973V13.7249H93.8173Z" fill="#333333"/>
<path d="M105.689 21.025C105.683 20.8626 105.713 20.7007 105.775 20.5506C105.838 20.4005 105.933 20.2656 106.053 20.1551C106.309 19.9389 106.634 19.8203 106.97 19.8203C107.306 19.8203 107.631 19.9389 107.886 20.1551C108.13 20.3783 108.263 20.6959 108.25 21.025C108.256 21.1853 108.227 21.345 108.165 21.4932C108.103 21.6413 108.009 21.7744 107.89 21.8833C107.632 22.0967 107.307 22.2136 106.971 22.2136C106.635 22.2136 106.309 22.0967 106.051 21.8833C105.932 21.7746 105.838 21.6415 105.776 21.4934C105.713 21.3452 105.684 21.1855 105.689 21.025Z" fill="#333333"/>
<path d="M112.616 22.1278H110.346V13.7246H112.616V22.1278ZM110.213 11.5498C110.209 11.3951 110.237 11.2411 110.296 11.0979C110.355 10.9547 110.443 10.8254 110.556 10.7184C110.818 10.5074 111.145 10.3922 111.482 10.3922C111.819 10.3922 112.146 10.5074 112.407 10.7184C112.868 11.1815 112.866 11.9269 112.403 12.3883C111.868 12.8232 111.099 12.8232 110.564 12.3883C110.449 12.2812 110.358 12.1511 110.298 12.0065C110.237 11.8619 110.209 11.7062 110.213 11.5498Z" fill="#333333"/>
<path d="M117.188 11.6588V13.725H118.635V15.3711H117.188V19.5652C117.165 19.8023 117.229 20.0388 117.368 20.2334C117.559 20.3916 117.808 20.4649 118.056 20.4352C118.279 20.4374 118.503 20.4186 118.723 20.38V22.0807C118.279 22.2153 117.817 22.2833 117.353 22.2825C115.767 22.2825 114.958 21.4876 114.927 19.8982V15.3711H113.69V13.725H114.927V11.6588H117.188Z" fill="#333333"/>
<path d="M36.401 30.9546C36.409 30.7207 36.345 30.49 36.2176 30.2931C36.0672 30.0897 35.8688 29.9259 35.6399 29.8162C35.2582 29.6348 34.8589 29.4926 34.4482 29.3917C34.0339 29.2904 33.6325 29.1425 33.2521 28.9507C33.0169 28.8303 32.816 28.6533 32.6676 28.4358C32.5386 28.221 32.4742 27.974 32.4821 27.7241C32.4786 27.5119 32.5285 27.3023 32.6271 27.114C32.7258 26.9258 32.8701 26.7649 33.0471 26.6458C33.4802 26.3544 33.9966 26.2097 34.5193 26.2334C34.886 26.2279 35.2493 26.3051 35.5804 26.4617C35.88 26.6014 36.1327 26.8238 36.3082 27.1023C36.481 27.3823 36.5704 27.7054 36.5654 28.0339H36.3376C36.3425 27.8211 36.2998 27.6099 36.2127 27.4153C36.1256 27.2208 35.9962 27.0478 35.8337 26.9088C35.4681 26.601 34.9989 26.4415 34.5199 26.4622C34.056 26.4405 33.5972 26.5658 33.2099 26.82C33.0622 26.9152 32.9397 27.0442 32.8529 27.1962C32.766 27.3483 32.7173 27.5188 32.7109 27.6934C32.7045 27.8681 32.7405 28.0417 32.8159 28.1996C32.8914 28.3575 33.004 28.495 33.1443 28.6006C33.5801 28.8871 34.0669 29.0884 34.5788 29.1938C35.0988 29.3035 35.5949 29.5053 36.0426 29.7903C36.2303 29.9194 36.3825 30.0928 36.4856 30.295C36.5887 30.4971 36.6394 30.7215 36.6332 30.948C36.6376 31.2402 36.546 31.5263 36.3715 31.7622C36.1809 32.0099 35.9236 32.1991 35.6293 32.308C35.2849 32.4409 34.9182 32.5065 34.5493 32.501C34.1391 32.5071 33.7317 32.4321 33.351 32.2804C33.0264 32.1576 32.7475 31.9393 32.5515 31.6547C32.3683 31.3684 32.2751 31.0345 32.2838 30.6955H32.5115C32.5013 30.9208 32.5475 31.1451 32.6461 31.3483C32.7447 31.5516 32.8926 31.7273 33.0765 31.8598C33.509 32.1527 34.0257 32.2982 34.5488 32.2744C35.0194 32.2934 35.4842 32.1653 35.8776 31.9083C36.0393 31.8065 36.1722 31.6656 36.2638 31.4987C36.3553 31.3319 36.4025 31.1446 36.401 30.9546Z" fill="#333333"/>
<path d="M42.2568 32.4154H42.029L38.0634 26.7058V32.4154H37.834V26.321H38.0662L42.0318 32.0185V26.321H42.2595L42.2568 32.4154Z" fill="#333333"/>
<path d="M48.0659 29.7915C48.1034 30.4449 47.9044 31.0901 47.5048 31.6107C47.3194 31.8301 47.0857 32.0043 46.8216 32.1198C46.5576 32.2353 46.2703 32.2889 45.982 32.2767C45.5917 32.2854 45.2074 32.1805 44.8765 31.9751C44.5534 31.7649 44.3001 31.4648 44.1481 31.1124C43.9712 30.7064 43.8842 30.2674 43.8931 29.8251V28.9331C43.8567 28.2831 44.0575 27.6417 44.4587 27.1266C44.652 26.9171 44.8871 26.75 45.1491 26.6358C45.4112 26.5215 45.6943 26.4627 45.9805 26.4632C46.2667 26.4636 46.5496 26.5232 46.8113 26.6382C47.073 26.7531 47.3077 26.921 47.5003 27.131C47.8974 27.6356 48.0981 28.2651 48.0659 28.9045V29.7915ZM48.2931 28.9149C48.3019 28.4343 48.204 27.9575 48.0065 27.5185C47.8334 27.1308 47.5497 26.802 47.1903 26.5725C46.8231 26.3547 46.4032 26.2397 45.9753 26.2397C45.5475 26.2397 45.1276 26.3547 44.7603 26.5725C44.402 26.8006 44.119 27.128 43.9464 27.5141C43.7498 27.9539 43.6525 28.4311 43.6614 28.9122V29.7887C43.6228 30.5035 43.851 31.2074 44.3026 31.7656C44.5091 32.0048 44.7673 32.1949 45.0579 32.3217C45.3485 32.4485 45.6642 32.5089 45.9815 32.4983C46.4102 32.507 46.8322 32.3921 47.1965 32.1675C47.5541 31.9387 47.8365 31.611 48.0087 31.2248C48.2059 30.7849 48.3031 30.3069 48.2937 29.8246L48.2931 28.9149Z" fill="#333333"/>
<path d="M50.9174 32.0394L51.1952 31.035L52.6463 26.3215H52.8997L54.3441 31.035L54.6185 32.0394L54.9052 31.035L56.1708 26.3215H56.4197L54.7652 32.4154H54.508L52.9852 27.3326L52.7702 26.6887L52.5635 27.3331L51.0274 32.4154H50.7702L49.1113 26.321H49.3647L50.6386 31.0344L50.9174 32.0394Z" fill="#333333"/>
<path d="M59.7395 33.5455H59.5117V26.3215H59.7395V33.5455Z" fill="#333333"/>
<path d="M67.2901 26.5464H65.0557V32.4153H64.8279V26.5464H62.5918V26.3204H67.2912L67.2901 26.5464Z" fill="#333333"/>
<path d="M68.5731 26.5465H70.2858C70.7623 26.5196 71.2324 26.6654 71.6086 26.9567C71.9342 27.2378 72.112 27.6513 72.0914 28.0785C72.0974 28.2781 72.0616 28.4767 71.9865 28.6619C71.9113 28.8471 71.7984 29.0149 71.6547 29.1546C71.5026 29.2988 71.3228 29.4109 71.1259 29.4843C70.929 29.5577 70.7193 29.5909 70.5092 29.5819H68.5725L68.5731 26.5465ZM72.3336 32.4155H72.577V32.357L70.9358 29.7489C71.3264 29.6803 71.679 29.4744 71.9292 29.169C72.1868 28.8638 72.3249 28.4766 72.3181 28.0785C72.3294 27.8375 72.2862 27.597 72.1917 27.3746C72.0972 27.1523 71.9538 26.9537 71.7719 26.7935C71.3576 26.4612 70.834 26.2927 70.3019 26.3205H68.3447V32.4155H68.5725V29.8079H70.7031L72.3336 32.4155Z" fill="#333333"/>
<path d="M75.7538 26.5938L77.1715 30.3701H74.3321L75.7538 26.5938ZM77.9449 32.4154H78.1921L75.8893 26.3215H75.6115L73.3154 32.4154H73.5643L74.2477 30.5961H77.2554L77.9449 32.4154Z" fill="#333333"/>
<path d="M80.4273 31.8216L80.5495 32.1899L80.6718 31.8216L82.7351 26.3209H82.984L80.689 32.4153H80.4112L78.1162 26.3204H78.3651L80.4273 31.8216Z" fill="#333333"/>
<path d="M87.2789 29.3933H84.1995V32.1899H87.7094V32.416H83.9717V26.321H87.7094V26.547H84.1995V29.1678H87.2789V29.3933Z" fill="#333333"/>
<path d="M89.123 32.1893H92.2741V32.4154H88.8896V26.3215H89.1219L89.123 32.1893Z" fill="#333333"/>
<path d="M95.5637 33.5455H95.3359V26.3215H95.5637V33.5455Z" fill="#333333"/>
<path d="M102.876 30.9546C102.884 30.7207 102.82 30.49 102.692 30.2931C102.542 30.0896 102.343 29.9259 102.114 29.8162C101.733 29.6348 101.334 29.4926 100.923 29.3917C100.508 29.2904 100.107 29.1424 99.7267 28.9507C99.4916 28.8302 99.2906 28.6532 99.1422 28.4358C99.0133 28.221 98.9489 27.974 98.9567 27.7241C98.9534 27.5119 99.0033 27.3022 99.102 27.114C99.2008 26.9257 99.3452 26.7648 99.5223 26.6458C99.9553 26.3543 100.472 26.2097 100.994 26.2334C101.361 26.2273 101.724 26.3051 102.056 26.4616C102.355 26.6013 102.608 26.8237 102.783 27.1022C102.956 27.3823 103.046 27.7053 103.041 28.0339H102.813C102.818 27.8204 102.775 27.6084 102.688 27.4132C102.6 27.2181 102.47 27.0446 102.307 26.9054C101.941 26.5991 101.472 26.4408 100.994 26.4622C100.53 26.4404 100.071 26.5657 99.6839 26.82C99.5362 26.9151 99.4138 27.0442 99.3269 27.1962C99.2401 27.3482 99.1914 27.5188 99.1849 27.6934C99.1785 27.868 99.2145 28.0416 99.29 28.1995C99.3654 28.3574 99.478 28.495 99.6184 28.6006C100.054 28.8873 100.541 29.0885 101.053 29.1938C101.573 29.3037 102.069 29.5057 102.517 29.7903C102.704 29.9194 102.857 30.0928 102.96 30.2949C103.063 30.4971 103.113 30.7215 103.107 30.948C103.112 31.2405 103.02 31.5264 102.846 31.7622C102.655 32.0099 102.398 32.1991 102.103 32.308C101.759 32.4408 101.392 32.5065 101.023 32.5009C100.613 32.5071 100.206 32.4321 99.8256 32.2804C99.501 32.1576 99.2221 31.9393 99.0261 31.6547C98.8429 31.3684 98.7497 31.0345 98.7584 30.6955H98.9861C98.9759 30.9208 99.0223 31.1452 99.121 31.3484C99.2197 31.5516 99.3677 31.7273 99.5517 31.8598C99.9841 32.1527 100.501 32.2982 101.024 32.2744C101.495 32.2933 101.959 32.1653 102.353 31.9083C102.681 31.701 102.879 31.3405 102.876 30.9546Z" fill="#333333"/>
<path d="M108.685 32.4154H108.457V29.3933H104.533V32.4154H104.306V26.321H104.533V29.1678H108.457V26.321H108.685V32.4154Z" fill="#333333"/>
<path d="M114.494 29.7915C114.531 30.4449 114.332 31.0901 113.933 31.6107C113.747 31.8301 113.514 32.0043 113.25 32.1198C112.986 32.2353 112.698 32.289 112.41 32.2767C112.02 32.2854 111.635 32.1805 111.304 31.9751C110.982 31.7646 110.73 31.4645 110.578 31.1124C110.401 30.7064 110.314 30.2674 110.323 29.8251V28.9337C110.287 28.2837 110.487 27.6424 110.888 27.1271C111.082 26.9177 111.317 26.7505 111.579 26.6363C111.841 26.5221 112.124 26.4633 112.41 26.4637C112.696 26.4641 112.979 26.5237 113.241 26.6387C113.503 26.7537 113.737 26.9216 113.93 27.1316C114.327 27.6361 114.527 28.2654 114.495 28.9045L114.494 29.7915ZM114.723 28.9127C114.732 28.4321 114.634 27.9554 114.437 27.5163C114.264 27.1286 113.98 26.7997 113.62 26.5703C113.253 26.3525 112.833 26.2375 112.405 26.2375C111.977 26.2375 111.557 26.3525 111.19 26.5703C110.831 26.7989 110.548 27.1271 110.376 27.5141C110.179 27.954 110.082 28.4312 110.091 28.9122V29.7887C110.052 30.5035 110.281 31.2074 110.732 31.7656C110.939 32.0048 111.197 32.1949 111.488 32.3217C111.778 32.4485 112.094 32.5089 112.411 32.4983C112.84 32.5069 113.262 32.392 113.626 32.1675C113.984 31.9386 114.266 31.6109 114.438 31.2248C114.635 30.7849 114.733 30.3069 114.723 29.8246L114.723 28.9127Z" fill="#333333"/>
<path d="M116.355 26.5482H118.046C118.514 26.5196 118.976 26.6668 119.339 26.9606C119.656 27.2572 119.826 27.6773 119.801 28.1095C119.813 28.3169 119.777 28.5242 119.697 28.7161C119.617 28.9081 119.495 29.0798 119.339 29.2186C118.972 29.5031 118.512 29.6443 118.046 29.6156H116.355V26.5482ZM118.076 29.8416C118.599 29.8699 119.113 29.706 119.521 29.3813C119.695 29.2174 119.83 29.0178 119.918 28.7965C120.006 28.5752 120.044 28.3375 120.029 28.1001C120.043 27.8576 120.003 27.6151 119.913 27.3893C119.823 27.1634 119.685 26.9596 119.508 26.7919C119.099 26.4566 118.576 26.2883 118.046 26.3211H116.127V32.4155H116.355V29.841L118.076 29.8416Z" fill="#333333"/>
</g>
<defs>
<clipPath id="clip0_2419_9741">
<rect width="120" height="43" fill="white"/>
</clipPath>
</defs>
</svg>
