<svg width="120" height="38" viewBox="0 0 120 38" fill="none" xmlns="http://www.w3.org/2000/svg">
<path d="M106.038 0.0904886C106.491 1.24201e-05 107.034 1.2435e-05 107.486 0.271441C107.938 0.54287 108.21 0.99525 108.391 1.44763C108.481 1.80954 108.481 2.26192 108.481 2.62382C108.481 4.79525 108.481 7.05715 108.481 9.22858C108.481 10.2238 109.296 11.1286 110.291 11.3095C110.834 11.4 111.467 11.3095 112.01 11.4C113.638 11.581 115.086 12.3953 116.081 13.6619C116.443 14.1143 116.805 14.6572 116.986 15.2905C117.258 16.1952 117.529 17.1905 117.438 18.0952C117.438 20.2667 117.438 22.4381 117.438 24.6095C117.529 25.4238 116.896 26.2381 116.081 26.5095C115.448 26.6905 114.724 26.5095 114.272 26.0572C113.91 25.6952 113.638 25.1524 113.638 24.5191C113.638 22.4381 113.638 20.2667 113.638 18.1857C113.638 17.6429 113.638 17.1 113.457 16.6476C113.277 16.0143 112.643 15.4714 112.01 15.2905C111.377 15.1095 110.743 15.2 110.019 15.1095C109.115 14.9286 108.21 14.7476 107.396 14.2048C106.219 13.3905 105.224 12.1238 104.862 10.6762C104.681 10.0429 104.591 9.40954 104.591 8.68573C104.591 6.5143 104.591 4.25239 104.591 2.08096C104.591 1.62858 104.591 1.1762 104.862 0.723822C105.134 0.54287 105.586 0.180965 106.038 0.0904886Z" fill="#405464"/>
<path d="M61.7961 0.0904471C62.2485 -2.90647e-05 62.6104 0.0904471 62.9723 0.361876C63.6056 0.814257 63.9675 1.62854 63.877 2.35235C63.877 5.42854 63.877 8.59521 63.877 11.6714C64.8723 11.6714 65.8675 11.6714 66.8627 11.6714C67.7675 11.6714 68.4913 12.4857 68.5818 13.3C68.7627 14.2952 67.9485 15.2904 67.0437 15.3809C65.958 15.2904 64.8723 15.3809 63.877 15.3809C63.877 16.6476 63.877 17.9143 63.877 19.1809C63.877 19.4524 63.9675 19.6333 63.9675 19.9047C63.9675 20.719 64.4199 21.4428 64.8723 22.0762C65.2342 22.4381 65.5961 22.8 66.1389 22.8904C66.4104 22.9809 66.7723 22.8904 67.0437 22.9809C67.4961 23.0714 67.9485 23.4333 68.2199 23.7952C68.5818 24.2476 68.5818 24.8809 68.4008 25.4238C68.1294 26.0571 67.4961 26.6904 66.7723 26.6904C65.958 26.6904 65.1437 26.6904 64.4199 26.419C63.5151 26.1476 62.7913 25.6047 62.158 24.8809C61.4342 24.1571 60.8913 23.1619 60.6199 22.1666C60.5294 21.8047 60.4389 21.4428 60.3484 21.0809C60.1675 20.2666 60.258 19.4524 60.258 18.6381C60.258 13.2095 60.258 7.78092 60.258 2.35235C60.258 1.99045 60.3485 1.62854 60.4389 1.35711C60.6199 0.72378 61.1627 0.2714 61.7961 0.0904471Z" fill="#405464"/>
<path d="M3.43849 0.271374C4.25277 -5.42402e-05 5.15753 0.542803 5.51944 1.26661C5.70039 1.53804 5.70039 1.89995 5.70039 2.17137C5.70039 9.77137 5.70039 17.3714 5.70039 24.8809C5.70039 25.4238 5.51944 25.9666 5.06706 26.238C4.34325 26.8714 3.07658 26.8714 2.44325 26.1476C2.17182 25.8761 1.90039 25.4238 1.90039 24.9714C1.90039 17.2809 1.90039 9.59042 1.90039 1.89995C1.90039 1.17614 2.53372 0.452327 3.43849 0.271374Z" fill="#405464"/>
<path d="M93.8237 11.4905C94.9095 11.4 96.0856 11.4905 97.0809 11.9429C98.0761 12.3953 99.0714 13.0286 99.7952 13.8429C100.429 14.4762 100.519 15.4715 99.9761 16.1953C99.6142 16.7381 99.0714 17.1 98.438 17.1C97.8952 17.1 97.3523 16.9191 96.9904 16.5572C96.3571 15.9238 95.4523 15.381 94.4571 15.381C93.3714 15.381 92.3761 15.8334 91.6523 16.6477C90.9285 17.3715 90.3856 18.4572 90.4761 19.5429C90.5666 20.6286 91.1999 21.6238 92.0142 22.2572C92.6475 22.8 93.4618 23.1619 94.3666 23.1619C95.3618 23.1619 96.3571 22.6191 97.0809 21.8953C97.8047 21.1715 99.0714 21.081 99.7952 21.8953C100.338 22.3477 100.519 23.1619 100.248 23.7953C100.157 24.0667 99.9761 24.4286 99.7047 24.6096C99.0714 25.2429 98.3476 25.7857 97.6237 26.1477C96.3571 26.781 94.819 27.1429 93.4618 26.9619C91.6523 26.781 89.9333 25.6953 88.7571 24.4286C87.9428 23.6143 87.3095 22.6191 87.038 21.5334C86.3142 19.4524 86.7666 17.0096 87.9428 15.2C89.2999 13.1191 91.4714 11.6715 93.8237 11.4905Z" fill="#405464"/>
<path d="M14.4769 11.4905C16.2864 11.3096 18.1864 11.581 19.7245 12.5762C21.2626 13.5715 22.4388 15.0191 22.9816 16.7381C23.434 18.0953 23.434 19.5429 23.0721 20.9C22.8007 22.1667 22.1674 23.3429 21.2626 24.2477C20.3578 25.2429 19.1816 25.9667 17.915 26.3286C16.6483 26.6905 15.3816 26.6905 14.115 26.4191C12.3055 26.0572 10.6769 24.9715 9.59117 23.5239C8.59593 22.1667 8.05307 20.4477 8.14355 18.7286C8.23403 16.9191 8.86736 15.1096 10.0436 13.8429C11.1293 12.6667 12.7578 11.762 14.4769 11.4905ZM14.9293 15.381C14.115 15.4715 13.3912 16.0143 12.8483 16.6477C12.4864 17.1 12.1245 17.6429 12.034 18.2762C11.7626 19.362 12.034 20.6286 12.8483 21.5334C13.3912 22.2572 14.2055 22.7096 15.1102 22.8905C15.9245 22.981 16.7388 22.8905 17.4626 22.6191C18.2769 22.2572 19.0007 21.5334 19.2721 20.6286C19.634 19.7239 19.634 18.5477 19.1816 17.6429C18.9102 17.0096 18.3674 16.4667 17.8245 16.0143C16.9197 15.381 15.9245 15.2 14.9293 15.381Z" fill="#405464"/>
<path d="M31.3951 11.4905C32.7523 11.3095 34.1094 11.4905 35.4666 11.9429C36.9142 12.4857 38.2713 13.5714 39.0856 14.9286C39.719 16.1048 40.0809 17.3714 40.0809 18.7286C40.0809 19 40.0809 19.2714 39.9904 19.5429C39.8094 20.0857 39.4475 20.5381 38.9047 20.8095C38.1809 21.081 37.2761 20.9905 36.7332 20.4476C36.3713 20.0857 36.1904 19.5429 36.1904 19.0905C36.1904 18.1857 36.0094 17.281 35.3761 16.5572C34.7428 15.8333 33.7475 15.381 32.7523 15.2905C31.6666 15.2 30.4904 15.4714 29.6761 16.1952C29.0428 16.7381 28.6809 17.5524 28.5904 18.3667C28.4999 19.3619 28.5904 20.5381 29.2237 21.3524C29.7666 22.0762 30.5809 22.6191 31.4856 22.7095C31.938 22.8 32.3904 22.8 32.9332 22.8C35.0142 22.8905 37.0047 23.8857 38.3618 25.4238C39.0856 26.2381 39.6285 27.3238 39.8094 28.4095C40.0809 29.6762 40.0809 30.9429 39.8094 32.1191C39.538 33.7476 38.5428 35.2857 37.2761 36.281C35.8285 37.3667 34.1094 38 32.2999 37.9095C31.3047 37.9095 30.3999 36.9143 30.4904 35.9191C30.5809 35.0143 31.3047 34.2905 32.119 34.1095C32.3904 34.1095 32.5713 34.1095 32.8428 34.1095C33.6571 34.0191 34.4713 33.7476 35.0142 33.2048C35.8285 32.5714 36.1904 31.6667 36.2809 30.7619C36.3713 29.7667 36.1904 28.681 35.4666 27.9572C35.0142 27.4143 34.2904 27.0524 33.5666 26.8714C33.1142 26.781 32.5713 26.781 32.0285 26.781C30.1285 26.6905 28.319 25.9667 26.9618 24.7C26.238 24.0667 25.6951 23.2524 25.4237 22.3476C24.9713 21.2619 24.8809 20.0857 24.8809 18.9095C24.8809 17.4619 25.3332 16.0143 26.1475 14.8381C27.4142 12.9381 29.3142 11.7619 31.3951 11.4905Z" fill="#405464"/>
<path d="M75.5481 11.7619C77.6291 11.3095 79.891 11.581 81.7005 12.6667C82.6053 13.2095 83.51 14.0238 84.0529 14.9286C84.8672 16.1953 85.1386 17.7333 85.1386 19.2714C85.1386 20.1762 84.2338 20.9905 83.2386 20.9905C81.5195 20.9905 79.8005 20.9905 78.1719 20.9905C77.81 20.9905 77.4481 20.9905 77.0862 20.9905C76.1814 20.8095 75.4576 19.8143 75.6386 18.9095C75.7291 18.0048 76.5433 17.1905 77.4481 17.1905C78.6243 17.1905 79.71 17.1905 80.8862 17.1905C80.4338 16.1953 79.4386 15.5619 78.3529 15.381C77.3576 15.2 76.3624 15.2905 75.5481 15.7429C74.5529 16.2857 73.9195 17.281 73.7386 18.3667C73.5576 19.3619 73.7386 20.4476 74.2814 21.3524C74.8243 22.1667 75.6386 22.7095 76.5433 22.8905C76.9053 22.981 77.2672 22.981 77.6291 22.981C78.6243 23.0714 79.4386 23.9762 79.3481 24.9714C79.3481 25.8762 78.5338 26.6905 77.6291 26.781C76.2719 26.781 74.9148 26.5095 73.7386 25.8762C72.9243 25.4238 72.2005 24.881 71.6576 24.1572C71.1148 23.4333 70.8433 22.6191 70.6624 21.8048C70.4814 20.9 70.4814 19.9953 70.4814 19.0905C70.4814 17.9143 70.5719 16.6476 71.0243 15.5619C71.3862 14.6572 72.0195 13.7524 72.7434 13.2095C73.4672 12.5762 74.4624 12.0334 75.5481 11.7619Z" fill="#405464"/>
<path d="M48.5866 13.6619C48.9485 13.2095 49.5818 13.0286 50.2152 13.1191C50.758 13.2095 51.2104 13.481 51.4818 13.9333C51.7533 14.2952 51.8437 14.8381 51.7533 15.2905C51.6628 15.8333 51.3009 16.2857 50.8485 16.5571C50.4866 16.7381 50.0342 16.8286 49.5818 16.7381C49.1295 17.9143 48.5866 19 48.0437 20.1762C48.3152 20.3571 48.4961 20.6286 48.5866 20.9C48.5866 20.9 48.6771 20.9 48.7676 20.9C49.9437 20.6286 51.1199 20.3572 52.2961 20.0857C52.2961 19.4524 52.5676 18.9095 53.0199 18.5476C53.6533 18.0952 54.558 18.0952 55.1914 18.5476C55.7342 18.9095 56.0056 19.7238 55.9152 20.3572C55.8247 21.081 55.1914 21.7143 54.4676 21.8048C53.6533 21.9857 52.839 21.5333 52.4771 20.8095C51.3009 21.081 50.1247 21.3524 48.9485 21.6238C48.9485 21.6238 48.858 21.6238 48.858 21.7143C48.858 22.0762 48.7675 22.5286 48.4961 22.8C48.1342 23.3429 47.3199 23.7048 46.6866 23.5238C45.8723 23.4333 45.1485 22.6191 45.1485 21.8048C45.058 20.9905 45.6009 20.2667 46.4152 19.9952C46.6866 19.9048 47.0485 19.9048 47.4104 19.9048C47.8628 18.7286 48.4056 17.6429 48.858 16.4667C48.4056 16.1048 48.1342 15.6524 48.0437 15.0191C48.0437 14.4762 48.2247 14.0238 48.5866 13.6619ZM49.6723 13.8429C49.039 14.0238 48.6771 14.7476 48.9485 15.2905C49.2199 15.9238 49.9437 16.1048 50.4866 15.8333C51.0295 15.5619 51.2104 14.8381 50.8485 14.2952C50.5771 13.9333 50.1247 13.7524 49.6723 13.8429ZM54.0152 18.9095C53.3818 19 52.9295 19.6333 53.1104 20.1762C53.2009 20.7191 53.7437 21.081 54.2866 20.9905C54.8295 20.9905 55.2818 20.4476 55.2818 19.9048C55.2818 19.2714 54.6485 18.7286 54.0152 18.9095ZM46.5961 20.6286C46.0533 20.8095 45.7818 21.3524 45.8723 21.8952C45.9628 22.4381 46.5056 22.8 46.958 22.7095C47.5914 22.7095 48.0437 22.1667 48.0437 21.5333C48.0437 20.9 47.3199 20.3571 46.5961 20.6286Z" fill="#405464"/>
<path d="M106.219 16.1048C107.305 15.9238 108.39 16.9191 108.39 18.0048C108.39 20.1762 108.39 22.2572 108.39 24.4286C108.39 24.7 108.39 24.9714 108.3 25.2429C108.119 25.9667 107.486 26.6 106.671 26.6905C106.129 26.781 105.495 26.6 105.133 26.1476C104.681 25.6953 104.5 25.1524 104.5 24.5191C104.5 22.3476 104.5 20.1762 104.5 18.0048C104.5 17.4619 104.681 17.0095 105.043 16.6476C105.495 16.3762 105.857 16.1953 106.219 16.1048Z" fill="#405464"/>
<path d="M49.2196 11.4905C51.3006 11.219 53.3815 11.8524 55.0101 13.2095C56.5482 14.4762 57.5435 16.2857 57.8149 18.2762C57.9958 20.1762 57.453 22.1667 56.2768 23.7048C55.1006 25.3333 53.2006 26.419 51.1196 26.6905C48.8577 26.9619 46.5958 26.2381 44.8768 24.7C43.3387 23.3428 42.4339 21.2619 42.4339 19.1809C42.3435 17.0095 43.2482 14.9286 44.8768 13.4809C46.053 12.3952 47.5911 11.6714 49.2196 11.4905ZM49.4911 12.4857C48.5863 12.5762 47.772 12.8476 47.0482 13.2095C46.3244 13.5714 45.6911 14.1143 45.1482 14.7476C44.4244 15.5619 43.972 16.4667 43.7006 17.4619C43.4292 18.4571 43.4292 19.5428 43.7006 20.6286C43.8815 21.4428 44.2435 22.2571 44.7863 22.9809C45.3292 23.7952 46.1435 24.4286 46.9577 24.8809C47.6815 25.2428 48.4958 25.6048 49.3101 25.6952C50.3958 25.7857 51.4815 25.6952 52.4768 25.3333C53.3815 24.9714 54.2863 24.4286 54.9196 23.7048C55.7339 22.8905 56.2768 21.8048 56.5482 20.719C56.8196 19.7238 56.8196 18.5476 56.5482 17.5524C56.2768 16.5571 55.8244 15.5619 55.1006 14.7476C54.3768 13.9333 53.472 13.3 52.4768 12.9381C51.4815 12.4857 50.4863 12.3952 49.4911 12.4857Z" fill="#F57F34"/>
<path d="M43.8814 29.8572C44.6957 29.5858 45.6004 29.5858 46.4147 29.8572C47.1385 30.0381 47.7719 30.4905 48.3147 31.0334C47.9528 31.3048 47.6814 31.6667 47.3195 32.0286C46.7766 31.3953 45.9623 31.0334 45.0576 31.0334C43.7909 31.0334 42.7052 32.1191 42.7052 33.3858C42.6147 34.562 43.7004 35.7382 44.8766 35.8286C45.4195 35.9191 46.0528 35.8286 46.5052 35.5572C46.8671 35.3762 47.0481 35.0143 47.229 34.7429C46.5052 34.7429 45.8719 34.7429 45.1481 34.7429C45.1481 34.2905 45.1481 33.9286 45.1481 33.4762C46.3242 33.4762 47.5909 33.4762 48.7671 33.4762C48.8576 34.4715 48.4957 35.5572 47.7719 36.281C47.229 36.8239 46.5957 37.1858 45.7814 37.2762C44.9671 37.3667 44.1528 37.2762 43.429 36.9143C42.3433 36.3715 41.6195 35.2858 41.3481 34.2001C41.2576 33.5667 41.2576 32.8429 41.529 32.2096C41.9814 30.9429 42.8862 30.1286 43.8814 29.8572Z" fill="#F57F34"/>
<path d="M77.0861 29.6762C77.7194 29.5857 78.3527 29.5857 78.8956 29.8571C80.3432 30.4 81.4289 31.8476 81.3384 33.3857C81.4289 34.9238 80.3432 36.4619 78.8051 37.0048C78.1718 37.1857 77.448 37.1857 76.7242 37.0952C75.7289 36.9143 74.9146 36.2809 74.4623 35.4667C73.8289 34.4714 73.7384 33.2048 74.1003 32.119C74.6432 30.8524 75.8194 29.8571 77.0861 29.6762ZM77.1765 31.0333C76.5432 31.2143 76.0003 31.6667 75.6384 32.3C75.367 32.8428 75.367 33.4762 75.4575 34.019C75.548 34.6524 76.0003 35.2857 76.6337 35.5571C77.448 36.0095 78.6242 35.919 79.2575 35.2857C79.9813 34.6524 80.2527 33.4762 79.8908 32.5714C79.7099 32.0286 79.2575 31.5762 78.7146 31.3048C78.2623 30.9428 77.6289 30.9428 77.1765 31.0333Z" fill="#F57F34"/>
<path d="M95.2716 29.6762C96.7192 29.4047 98.2573 29.9476 99.1621 31.0333C98.8002 31.3047 98.5288 31.6666 98.1669 31.9381C97.805 31.5762 97.443 31.3047 96.9907 31.1238C96.3573 30.8524 95.6335 30.8524 94.9097 31.1238C94.5478 31.3047 94.2764 31.4857 94.005 31.8476C93.2811 32.7524 93.3716 34.2905 94.1859 35.1047C95.0002 35.919 96.3573 36.0095 97.3526 35.3762C97.624 35.1952 97.8954 35.0143 98.0764 34.7428C98.4383 35.1047 98.7097 35.3762 98.9811 35.7381C98.5288 36.1 98.1669 36.4619 97.624 36.7333C97.0811 37.0047 96.4478 37.0952 95.8145 37.0952C94.9097 37.0952 94.0049 36.8238 93.3716 36.1905C92.8288 35.7381 92.4669 35.1047 92.2859 34.3809C92.1049 33.4762 92.105 32.3904 92.5573 31.4857C93.1002 30.6714 94.1859 29.9476 95.2716 29.6762Z" fill="#F57F34"/>
<path d="M115.357 29.6762C115.81 29.6762 116.262 29.6762 116.715 29.6762C116.715 31.3953 116.715 33.1143 116.715 34.9238C116.262 34.9238 115.81 34.9238 115.357 34.9238C115.357 33.1143 115.357 31.3953 115.357 29.6762Z" fill="#F57F34"/>
<path d="M51.0293 29.8571C52.296 29.8571 53.6531 29.8571 54.9198 29.8571C54.9198 30.3095 54.9198 30.7619 54.9198 31.2143C54.1055 31.2143 53.2007 31.2143 52.3864 31.2143C52.3864 31.6666 52.3864 32.0285 52.3864 32.4809C53.2007 32.4809 54.1055 32.4809 54.9198 32.4809C54.9198 32.9333 54.9198 33.3857 54.9198 33.8381C54.1055 33.8381 53.2007 33.8381 52.3864 33.8381C52.3864 34.4714 52.3864 35.1047 52.3864 35.7381C53.2007 35.7381 54.1055 35.7381 54.9198 35.7381C54.9198 36.1904 54.9198 36.6428 54.9198 37.0047C53.6531 37.0047 52.296 37.0047 51.0293 37.0047C51.0293 34.5619 51.0293 32.2095 51.0293 29.8571Z" fill="#F57F34"/>
<path d="M56.457 29.8571C57.8142 29.8571 59.0808 29.8571 60.438 29.8571C60.438 30.3095 60.438 30.7619 60.438 31.2143C59.9856 31.2143 59.5332 31.2143 59.1713 31.2143C59.1713 33.1143 59.1713 35.1047 59.1713 37.0047C58.7189 37.0047 58.2666 37.0047 57.8142 37.0047C57.8142 35.1047 57.8142 33.1143 57.8142 31.2143C57.3618 31.2143 56.9999 31.2143 56.5475 31.2143C56.457 30.6714 56.457 30.3095 56.457 29.8571Z" fill="#F57F34"/>
<path d="M66.0479 29.8571C66.5002 29.8571 66.8621 29.8571 67.3145 29.8571C68.3098 31.3952 69.3955 32.9333 70.3907 34.5619C70.3907 33.0238 70.3907 31.4857 70.3907 29.9476C70.8431 29.9476 71.2955 29.9476 71.7478 29.9476C71.7478 32.3 71.7478 34.7428 71.7478 37.0952C71.2955 37.0952 70.8431 37.0952 70.4812 37.0952C69.4859 35.5571 68.4907 34.019 67.405 32.4809C67.405 34.019 67.405 35.5571 67.405 37.0952C66.9526 37.0952 66.5002 37.0952 66.0479 37.0952C66.0479 34.5619 66.0479 32.2095 66.0479 29.8571Z" fill="#F57F34"/>
<path d="M82.9668 29.8571C84.3239 29.8571 85.5906 29.8571 86.9477 29.8571C86.9477 30.3095 86.9477 30.7619 86.9477 31.2143C86.4954 31.2143 86.043 31.2143 85.6811 31.2143C85.6811 33.1143 85.6811 35.1047 85.6811 37.0047C85.2287 37.0047 84.7763 37.0047 84.3239 37.0047C84.3239 35.1047 84.3239 33.1143 84.3239 31.2143C83.8716 31.2143 83.5097 31.2143 83.0573 31.2143C82.9668 30.6714 82.9668 30.3095 82.9668 29.8571Z" fill="#F57F34"/>
<path d="M88.7578 29.8571C89.2102 29.8571 89.6626 29.8571 90.115 29.8571C90.115 32.2095 90.115 34.6524 90.115 37.0047C89.6626 37.0047 89.2102 37.0047 88.7578 37.0047C88.7578 34.5619 88.7578 32.2095 88.7578 29.8571Z" fill="#F57F34"/>
<path d="M101.243 29.8571C102.51 29.8571 103.867 29.8571 105.134 29.8571C105.134 30.3095 105.134 30.7619 105.134 31.2143C104.319 31.2143 103.415 31.2143 102.6 31.2143C102.6 31.6666 102.6 32.0285 102.6 32.4809C103.415 32.4809 104.319 32.4809 105.134 32.4809C105.134 32.9333 105.134 33.3857 105.134 33.8381C104.319 33.8381 103.415 33.8381 102.6 33.8381C102.6 34.4714 102.6 35.1047 102.6 35.7381C103.415 35.7381 104.319 35.7381 105.134 35.7381C105.134 36.1904 105.134 36.6428 105.134 37.0047C103.867 37.0047 102.51 37.0047 101.243 37.0047C101.243 34.5619 101.243 32.2095 101.243 29.8571Z" fill="#F57F34"/>
<path d="M107.486 29.8572C108.391 29.8572 109.296 29.7667 110.11 29.8572C110.653 29.9476 111.196 30.0381 111.648 30.4C112.462 30.9429 112.915 31.8476 113.096 32.7524C113.186 33.7476 113.096 34.7429 112.553 35.5572C112.191 36.1905 111.557 36.6429 110.834 36.8238C109.657 37.0048 108.572 36.9143 107.396 36.9143C107.486 34.5619 107.486 32.2095 107.486 29.8572ZM108.843 31.1238C108.843 32.6619 108.843 34.1095 108.843 35.6476C109.476 35.6476 110.2 35.7381 110.834 35.4667C111.286 35.2857 111.557 34.8334 111.738 34.2905C111.829 33.8381 111.829 33.3857 111.829 33.0238C111.738 32.3905 111.467 31.7572 110.834 31.4857C110.2 31.1238 109.476 31.1238 108.843 31.1238Z" fill="#F57F34"/>
<path d="M115.719 35.4667C116.172 35.2858 116.715 35.5572 116.805 36.0096C116.986 36.462 116.624 37.0048 116.081 37.0953C115.629 37.1858 115.086 36.7334 115.086 36.281C115.176 35.9191 115.357 35.5572 115.719 35.4667Z" fill="#F57F34"/>
</svg>
