<svg width="82" height="31" viewBox="0 0 82 31" fill="none" xmlns="http://www.w3.org/2000/svg">
<path fill-rule="evenodd" clip-rule="evenodd" d="M75.1998 0.00913003C77.5183 0.00913003 78.8154 0.657826 79.9156 1.7187C81.0552 2.89766 81.6646 4.54834 81.6646 6.41504C81.6646 8.34062 80.9964 10.0895 79.778 11.2685C78.6778 12.251 77.5183 12.8405 75.1998 12.8405H69.0496V0.00913003H75.1998ZM60.4036 0.00913003L66.3577 12.8405H63.9405L62.3884 9.3823H56.2773L54.7447 12.8405H52.4456L58.3993 0.00913003H60.4036ZM49.7535 0.00926235V12.8406H47.5527V0.00926235H49.7535ZM39.2413 0.00913003C40.9509 0.00913003 42.1298 0.480848 42.9552 1.36507C43.6035 2.0528 43.977 2.95687 43.977 3.93934C43.977 5.66843 42.8374 6.985 41.1474 7.61352L44.2129 12.8405H41.678L38.9271 7.90826H34.3683V12.8405H32.1675V0.00913003H39.2413ZM19.6901 0.00926235L23.3646 4.96098L27.0391 0.00926235H29.6329L24.3669 6.92592V12.8406H22.1661V6.92592L16.8998 0.00926235H19.6901ZM4.16276 0L7.7033 10.046H7.73935L11.1896 0H14.3166V12.8313H12.1783V2.92955H12.1423L8.58355 12.8313H6.73307L3.17434 2.92955H3.13861V12.8313H1V0H4.16276ZM75.1015 1.9744H71.2504V10.8755H75.1015C76.7324 10.8755 77.2825 10.5021 78.0489 9.87353C78.8743 9.04819 79.3655 7.7905 79.3655 6.41504C79.3655 5.07894 78.9332 3.88013 78.1277 3.05512C77.4006 2.38691 76.7129 1.9744 75.1015 1.9744ZM59.4016 2.64228H59.2836L57.0632 7.61352H61.6024L59.4016 2.64228ZM39.2413 1.9744H34.3683V5.94332H39.6343C40.7937 5.94332 41.7762 5.03958 41.7762 3.93934C41.7762 3.44811 41.5797 3.01576 41.2456 2.66213C40.6366 2.03328 39.929 1.9744 39.2413 1.9744Z" fill="#1D1D1B"/>
<path fill-rule="evenodd" clip-rule="evenodd" d="M71.3366 18.0101L74.9082 23.0106L78.4791 18.0101H81L75.8823 24.9949V30.9677H73.7434V24.9949L68.6251 18.0101H71.3366ZM34.5922 18.01L40.3789 30.9676H38.0297L36.5212 27.4754H30.5818L29.0922 30.9676H26.8578L32.6442 18.01H34.5922ZM7.54307 18.01C8.95639 18.01 9.93054 18.5064 10.5417 19.1411C11.0764 19.697 11.3818 20.3915 11.3818 21.1852C11.3818 22.3758 10.6944 23.4471 9.7968 23.8242C11.2481 24.1813 12.0695 25.5109 12.0695 27.0983C12.0695 28.0507 11.7634 29.0231 10.9237 29.8566C10.3125 30.4519 9.49138 30.9676 7.69611 30.9676H0V18.01H7.54307ZM66.835 18.0101V19.9944H61.9463V30.9674H59.8076V19.9944H54.8993V18.0101H66.835ZM43.9541 17.9678V25.9553C43.9541 27.9002 45.4436 28.9715 47.3344 28.9715C49.2441 28.9715 50.7336 27.9002 50.7336 25.9553V17.9678H52.8729V25.9553C52.8729 29.1502 50.5044 30.9558 47.3344 30.9558C44.1833 30.9558 41.8151 29.1502 41.8151 25.9553V17.9678H43.9541ZM24.7215 18.0008V19.9577H16.8543V23.3463H24.2154V25.1947H16.8543V28.9822H24.8433V30.9394H14.6742V18.0008H24.7215ZM7.77231 25.1538H2.13862V28.9834H7.77231C8.36452 28.9834 8.93711 28.7849 9.31937 28.3881C9.64409 28.0507 9.83473 27.5546 9.83473 27.0786C9.83473 26.6022 9.64409 26.1853 9.33802 25.8483C8.9564 25.4314 8.40277 25.1538 7.77231 25.1538ZM33.6183 20.6691H33.5036L31.3456 25.6893H35.7573L33.6183 20.6691ZM7.31416 19.9946H2.13862V23.3679H7.31416C7.82985 23.3679 8.28799 23.2487 8.632 22.8916C8.95639 22.5542 9.14736 22.0781 9.14736 21.6018C9.14736 21.1652 8.97537 20.7683 8.70788 20.4907C8.36452 20.1333 7.90572 19.9946 7.31416 19.9946Z" fill="#1D1D1B"/>
</svg>
