<svg width="117" height="38" viewBox="0 0 117 38" fill="none" xmlns="http://www.w3.org/2000/svg">
<g clip-path="url(#clip0_2419_9697)">
<path d="M83.218 37.9844L83.7978 36.4786L83.218 37.9844ZM83.9262 17.5719L78.7044 31.1517L73.4787 17.5719C71.9067 13.5525 68.0935 13.5525 64.7783 13.5525L73.6071 36.5097C73.79 36.9231 74.0795 37.2804 74.446 37.545C74.8125 37.8097 75.2428 37.972 75.6927 38.0155H81.7122C82.1621 37.972 82.5924 37.8097 82.9589 37.545C83.3254 37.2804 83.6149 36.9231 83.7978 36.5097L92.6266 13.5525C89.2997 13.5525 85.4982 13.5525 83.9262 17.5719ZM74.1869 37.9844L73.6071 36.4786L74.1869 37.9844Z" fill="#FA2A92"/>
<path d="M30.5409 13.5834H10.6342C10.1348 13.5834 9.65575 13.385 9.30257 13.0318C8.94939 12.6786 8.75097 12.1996 8.75097 11.7001V10.5795C8.75097 10.08 8.94939 9.60102 9.30257 9.24784C9.65575 8.89466 10.1348 8.69625 10.6342 8.69625H34.6498C34.6498 4.20208 31.3385 0.560059 27.2568 0.560059H7.89494C3.74319 0.560059 0.389105 4.25656 0.389105 8.81687V18.1904C0.392184 19.1874 0.789593 20.1426 1.49456 20.8476C2.19953 21.5526 3.15478 21.95 4.15175 21.9531H27.8093C28.3081 21.9541 28.7862 22.153 29.1385 22.506C29.4908 22.8591 29.6887 23.3375 29.6887 23.8363V27.7274C29.6887 28.2258 29.4907 28.7038 29.1383 29.0563C28.7858 29.4087 28.3078 29.6067 27.8093 29.6067H0C0 34.2332 3.40856 37.9803 7.61089 37.9803H30.5409C34.6887 37.9803 38.0545 34.2799 38.0545 29.7157V21.848C38.0545 17.2799 34.6887 13.5834 30.5409 13.5834Z" fill="#202234"/>
<path d="M60.3383 13.5836H40.6846C40.6846 14.3774 40.841 15.1635 41.1449 15.8969C41.4488 16.6303 41.8943 17.2967 42.4558 17.8578C43.0174 18.419 43.684 18.864 44.4176 19.1675C45.1512 19.4709 45.9374 19.6269 46.7313 19.6264H57.1982C57.4297 19.6274 57.6514 19.7201 57.8147 19.8842C57.9781 20.0482 58.0698 20.2703 58.0698 20.5018V22.245C58.0698 22.4762 57.978 22.6979 57.8145 22.8613C57.651 23.0248 57.4293 23.1166 57.1982 23.1166H44.3577C43.4289 23.1166 42.5382 23.4856 41.8815 24.1423C41.2247 24.7991 40.8558 25.6898 40.8558 26.6186V34.2528C40.8589 35.2498 41.2563 36.205 41.9612 36.91C42.6662 37.615 43.6215 38.0124 44.6184 38.0155H60.3499C61.3469 38.0124 62.3022 37.615 63.0071 36.91C63.7121 36.205 64.1095 35.2498 64.1126 34.2528V17.3462C64.1095 16.3472 63.7105 15.3902 63.003 14.6849C62.2955 13.9796 61.3373 13.5836 60.3383 13.5836ZM48.206 31.9532C47.979 31.9534 47.7548 31.9026 47.5501 31.8045C47.3454 31.7064 47.1654 31.5635 47.0235 31.3864C46.8815 31.2092 46.7811 31.0025 46.7299 30.7813C46.6786 30.5602 46.6778 30.3304 46.7274 30.1088C46.8142 29.7724 47.0112 29.4746 47.2869 29.2631C47.5627 29.0515 47.9013 28.9383 48.2488 28.9415H56.4745C56.822 28.9383 57.1606 29.0515 57.4363 29.2631C57.712 29.4746 57.909 29.7724 57.9959 30.1088C58.0455 30.3304 58.0446 30.5602 57.9933 30.7813C57.9421 31.0025 57.8418 31.2092 57.6998 31.3864C57.5578 31.5635 57.3778 31.7064 57.1731 31.8045C56.9684 31.9026 56.7443 31.9534 56.5173 31.9532H48.206Z" fill="#0073C0"/>
<path d="M100.954 28.6964H110.635C111.426 28.6969 112.209 28.5416 112.94 28.2393C113.67 27.937 114.334 27.4937 114.894 26.9347C115.453 26.3757 115.897 25.712 116.2 24.9814C116.502 24.2508 116.658 23.4678 116.658 22.6769V17.3462C116.655 16.3492 116.258 15.394 115.553 14.689C114.848 13.984 113.893 13.5866 112.896 13.5836H97.164C96.167 13.5866 95.2118 13.984 94.5068 14.689C93.8019 15.394 93.4044 16.3492 93.4014 17.3462V34.2372C93.4044 35.2342 93.8019 36.1895 94.5068 36.8944C95.2118 37.5994 96.167 37.9968 97.164 37.9999H110.713C112.281 38.0259 113.796 37.4284 114.925 36.3385C116.053 35.2486 116.703 33.7554 116.732 32.1867H100.954C100.555 32.1867 100.172 32.028 99.8891 31.7456C99.6067 31.4632 99.4481 31.0802 99.4481 30.6808V30.2022C99.4481 29.8029 99.6067 29.4198 99.8891 29.1374C100.172 28.855 100.555 28.6964 100.954 28.6964ZM109.199 19.6264C109.426 19.6267 109.65 19.6781 109.855 19.7767C110.06 19.8752 110.24 20.0185 110.382 20.1959C110.523 20.3733 110.624 20.5803 110.675 20.8016C110.726 21.0229 110.727 21.2529 110.678 21.4746C110.591 21.8111 110.394 22.1088 110.118 22.3204C109.842 22.5319 109.504 22.6451 109.156 22.6419H100.934C100.586 22.6493 100.245 22.5377 99.9687 22.3255C99.6921 22.1133 99.4961 21.8132 99.413 21.4746C99.3628 21.2531 99.3631 21.0232 99.4138 20.8019C99.4645 20.5805 99.5644 20.3734 99.7061 20.1959C99.8477 20.0184 100.027 19.8751 100.232 19.7765C100.437 19.6779 100.661 19.6266 100.888 19.6264H109.199Z" fill="#F9C035"/>
<path d="M46.5255 1.80163C46.1712 1.62509 45.7813 1.53192 45.3854 1.52926C44.9443 1.52528 44.5097 1.63661 44.1247 1.85222C43.7506 2.06077 43.4396 2.36638 43.2246 2.73686C43.0096 3.10733 42.8985 3.52895 42.903 3.95728C42.8981 4.38775 43.009 4.81163 43.2239 5.18465C43.4388 5.55767 43.7499 5.86616 44.1247 6.0779C44.5083 6.29776 44.9433 6.41189 45.3854 6.40864C45.7713 6.40371 46.1518 6.31753 46.5022 6.15572C46.8749 5.99371 47.2161 5.76714 47.51 5.48646L48.5956 6.60708C48.1527 7.03965 47.6327 7.38543 47.0625 7.62654C46.435 7.89912 45.7542 8.02702 45.0705 8.00075C44.3868 7.97448 43.7178 7.79472 43.1131 7.47478C42.4727 7.144 41.9346 6.64492 41.5567 6.03121C41.1832 5.41293 40.9892 4.70291 40.9963 3.98062C40.9881 3.26271 41.1866 2.55758 41.5683 1.94949C41.95 1.34275 42.4875 0.849585 43.1247 0.521478C43.8079 0.170109 44.5667 -0.0088885 45.3349 7.67849e-05C45.9357 0.00189706 46.5305 0.120847 47.0858 0.350271C47.6336 0.565568 48.1334 0.886887 48.5567 1.2958L47.4827 2.54872C47.2165 2.23852 46.8911 1.98454 46.5255 1.80163ZM56.7395 0.521478C57.3865 0.848128 57.9325 1.3444 58.3193 1.95728C58.7051 2.56537 58.9064 3.27219 58.8991 3.99229C58.905 4.71342 58.7038 5.42108 58.3193 6.03121C57.9318 6.64544 57.3861 7.14407 56.7395 7.47478C56.0478 7.82277 55.2843 8.00401 54.51 8.00401C53.7357 8.00401 52.9721 7.82277 52.2804 7.47478C51.634 7.14562 51.0882 6.64827 50.7006 6.0351C50.3234 5.42192 50.1237 4.71611 50.1237 3.99619C50.1237 3.27626 50.3234 2.57045 50.7006 1.95728C51.0816 1.34804 51.6191 0.852201 52.257 0.521478C52.9509 0.178425 53.7145 -3.43295e-05 54.4886 -3.43295e-05C55.2626 -3.43295e-05 56.0262 0.178425 56.7201 0.521478H56.7395ZM53.2726 1.85611C52.8923 2.06694 52.5742 2.37428 52.3504 2.74716C52.1265 3.12354 52.0107 3.55437 52.0158 3.99229C52.0099 4.4326 52.1286 4.8656 52.3582 5.24132C52.5837 5.61482 52.9012 5.92428 53.2804 6.14015C53.6573 6.36146 54.0862 6.47898 54.5233 6.48077C54.9603 6.48255 55.3901 6.36853 55.7688 6.15031C56.1476 5.93208 56.4618 5.61744 56.6794 5.23839C56.8971 4.85933 57.0104 4.42939 57.008 3.99229C57.0113 3.5546 56.8956 3.12424 56.6734 2.74716C56.4567 2.37807 56.1485 2.07115 55.7784 1.85611C55.3999 1.63818 54.9701 1.52534 54.5333 1.52926C54.0918 1.52665 53.6572 1.63931 53.2726 1.85611ZM61.3076 0.323034H63.3426L65.8601 5.0351L68.3582 0.323034H70.3777V7.99618H68.7512V2.70436L66.4633 7.30358H65.2765L62.9419 2.70436V8.00008H61.3115L61.3076 0.323034ZM79.5567 0.801633C79.844 1.04723 80.0707 1.35583 80.2192 1.70341C80.3676 2.05099 80.4339 2.42815 80.4127 2.80552C80.4353 3.20039 80.3695 3.59533 80.22 3.96152C80.0706 4.32772 79.8413 4.65594 79.5489 4.92226C78.8607 5.46258 77.998 5.73122 77.1247 5.67712H75.4866V8.01175H73.6267V0.093462H77.1286C77.9958 0.0393488 78.8546 0.289832 79.5567 0.801633ZM78.1481 3.94949C78.2831 3.82969 78.3886 3.68019 78.4561 3.51275C78.5236 3.34531 78.5514 3.16449 78.5372 2.98451C78.5507 2.80747 78.5226 2.62971 78.455 2.46551C78.3874 2.3013 78.2823 2.15522 78.1481 2.03899C77.8051 1.80658 77.3941 1.69563 76.9808 1.72381H75.4866V4.28023H76.9769C77.394 4.3105 77.8084 4.19346 78.1481 3.94949ZM92.4633 8.00008L91.8679 6.60708H88.366L87.7707 8.00008H85.7317L89.2337 0.326925H91.117L94.5644 8.00008H92.4633ZM88.8368 4.99229H91.4127L90.1325 1.97673L88.8368 4.99229ZM102.471 0.323034H104.331V7.99618H102.666L98.7512 3.06233V7.99618H96.8874V0.323034H98.545L102.467 5.27634L102.471 0.323034ZM113.23 0.813306C113.85 1.11588 114.372 1.58807 114.736 2.17517C115.099 2.77387 115.285 3.46329 115.273 4.1635C115.285 4.86527 115.094 5.55568 114.724 6.15183C114.352 6.74004 113.822 7.21191 113.195 7.51369C112.497 7.84696 111.731 8.01347 110.957 8.00008H107.588V0.323034H111.016C111.782 0.309734 112.541 0.477723 113.23 0.813306ZM112.16 6.2958C112.519 6.0943 112.816 5.79651 113.016 5.43587C113.226 5.04933 113.332 4.61493 113.323 4.17517C113.331 3.72978 113.22 3.29034 113 2.9028C112.79 2.53528 112.481 2.23351 112.109 2.03121C111.718 1.82138 111.28 1.71553 110.837 1.72381H109.226V6.60708H110.895C111.333 6.61471 111.765 6.50738 112.148 6.2958H112.16Z" fill="#202234"/>
</g>
<defs>
<clipPath id="clip0_2419_9697">
<rect width="116.732" height="38" fill="white"/>
</clipPath>
</defs>
</svg>
